<svg width="81" height="81" viewBox="0 0 81 81" fill="none" xmlns="http://www.w3.org/2000/svg">
<path d="M52.1597 53.4322L30.3619 53.4606C30.0751 53.461 29.8 53.3474 29.597 53.145C29.394 52.9425 29.2797 52.6677 29.2794 52.3809L29.2353 18.5377C29.2353 18.4988 29.2352 18.4599 29.2352 18.421C29.8899 12.3098 33.5998 6.99258 40.5751 2.1662C40.7554 2.04161 40.9693 1.97474 41.1884 1.97445C41.4075 1.97417 41.6216 2.04048 41.8022 2.1646C48.7998 6.97172 52.518 12.2804 53.1833 18.393C53.1877 18.4311 53.1899 18.4693 53.1899 18.5076L53.234 52.3498C53.2343 52.6356 53.1215 52.9099 52.9202 53.1127C52.7189 53.3156 52.4455 53.4304 52.1597 53.4322ZM31.4401 51.297L51.0758 51.2715L51.0332 18.5677C50.4393 13.2442 47.3069 8.71853 41.2018 4.37512C35.1112 8.73656 31.9906 13.2704 31.4019 18.5944L31.4401 51.297Z" fill="white"/>
<path d="M24.7951 55.7014C24.6458 55.7017 24.4982 55.6712 24.3613 55.6116C24.2245 55.5521 24.1015 55.4648 24 55.3554L22.5363 53.7703C21.0348 52.1664 20.0273 50.1637 19.6347 48.002C19.2421 45.8403 19.4809 43.6113 20.3226 41.5818L20.3776 41.452C22.222 37.1453 25.6566 33.7161 29.9662 31.8785C30.1295 31.8192 30.3046 31.8001 30.4767 31.8229C30.6489 31.8456 30.813 31.9095 30.9553 32.0091C31.0975 32.1087 31.2136 32.2411 31.2939 32.3951C31.3741 32.5491 31.4161 32.7202 31.4162 32.8939L31.436 48.1036C31.4361 48.287 31.3895 48.4675 31.3007 48.628C31.2118 48.7885 31.0836 48.9237 30.928 49.021C28.6918 50.5088 26.9144 52.5903 25.7953 55.032C25.7256 55.1996 25.6149 55.3469 25.4734 55.4605C25.3318 55.574 25.164 55.6501 24.9853 55.6817C24.9226 55.6937 24.8589 55.7003 24.7951 55.7014ZM21.3178 42.0054L22.3118 42.4279C21.6326 44.074 21.4424 45.8811 21.7639 47.6326C22.0854 49.3841 22.9051 51.0058 24.1247 52.3034L24.5361 52.7493C25.7176 50.6844 27.3339 48.901 29.2731 47.5226L29.2563 34.6275C26.1962 36.3872 23.7797 39.0801 22.3603 42.3121L21.3178 42.0054Z" fill="white"/>
<path d="M57.7421 55.6585C57.6783 55.6586 57.6146 55.6533 57.5518 55.6426C57.373 55.6114 57.205 55.5358 57.0631 55.4226C56.9213 55.3094 56.8102 55.1624 56.7401 54.995C55.6146 52.5562 53.8318 50.4793 51.5918 48.9973C51.436 48.9005 51.3074 48.7656 51.2181 48.6053C51.1288 48.4451 51.0817 48.2647 51.0814 48.0812L51.0616 32.8683C51.0613 32.6946 51.1028 32.5235 51.1826 32.3693C51.2624 32.215 51.3782 32.0823 51.5202 31.9823C51.6622 31.8824 51.8262 31.8181 51.9983 31.7949C52.1704 31.7717 52.3455 31.7903 52.5089 31.8491C56.8233 33.6755 60.2668 37.0958 62.1224 41.3977L62.1777 41.5273C63.0247 43.5546 63.2693 45.783 62.8823 47.9457C62.4954 50.1085 61.4932 52.1138 59.9958 53.7215L58.5362 55.3105C58.435 55.4201 58.3122 55.5077 58.1756 55.5676C58.0389 55.6275 57.8913 55.6585 57.7421 55.6585ZM53.2428 47.4914C55.1855 48.8647 56.8064 50.6439 57.9934 52.7058L58.4036 52.2587C59.6192 50.9583 60.4342 49.3351 60.7512 47.5834C61.0681 45.8317 60.8735 44.0258 60.1907 42.3818L61.1317 41.8401L60.1419 42.2738C58.7142 39.0454 56.2907 36.3588 53.226 34.6071L53.2428 47.4914Z" fill="white"/>
<path d="M41.2271 23.7502C40.1009 23.7518 38.9995 23.4195 38.0621 22.7952C37.1248 22.1709 36.3936 21.2826 35.9611 20.2427C35.5287 19.2028 35.4142 18.0581 35.6324 16.9532C35.8505 15.8483 36.3914 14.8329 37.1867 14.0354C37.9819 13.238 38.9958 12.6942 40.1001 12.473C41.2044 12.2518 42.3495 12.363 43.3905 12.7925C44.4316 13.2221 45.3219 13.9508 45.9488 14.8864C46.5758 15.822 46.9112 16.9225 46.9127 18.0487C46.9129 19.5581 46.3145 21.0061 45.2486 22.0749C44.1828 23.1437 42.7365 23.7462 41.2271 23.7502ZM41.2151 14.5253C40.5165 14.526 39.8337 14.7339 39.2532 15.1226C38.6728 15.5114 38.2206 16.0636 37.954 16.7093C37.6874 17.3551 37.6183 18.0654 37.7554 18.7505C37.8926 19.4355 38.2298 20.0645 38.7244 20.5579C39.2191 21.0512 39.8489 21.3868 40.5343 21.5222C41.2197 21.6575 41.9299 21.5866 42.5749 21.3183C43.22 21.05 43.771 20.5964 44.1583 20.0149C44.5455 19.4334 44.7516 18.7501 44.7505 18.0515C44.7481 17.1154 44.3746 16.2185 43.7118 15.5575C43.0491 14.8964 42.1512 14.5252 41.2151 14.5253Z" fill="white"/>
<path d="M51.0466 57.9029L31.4866 57.9283C31.1999 57.9287 30.9248 57.8151 30.7218 57.6127C30.5188 57.4102 30.4045 57.1354 30.4041 56.8486L30.3983 52.3795C30.3979 52.0927 30.5115 51.8176 30.714 51.6146C30.9164 51.4116 31.1913 51.2973 31.478 51.297L51.038 51.2715C51.3247 51.2711 51.5998 51.3847 51.8028 51.5872C52.0058 51.7896 52.1201 52.0645 52.1205 52.3512L52.1263 56.8204C52.1267 57.1071 52.0131 57.3822 51.8106 57.5852C51.6082 57.7882 51.3333 57.9025 51.0466 57.9029ZM32.5649 55.7647L49.9627 55.7421L49.9597 53.4351L32.5619 53.4577L32.5649 55.7647Z" fill="white"/>
<path d="M41.3697 77.6496C40.6533 77.6173 39.963 77.3719 39.387 76.9449C38.8109 76.5179 38.3754 75.9287 38.1363 75.2527C37.1782 73.1267 35.9473 71.1346 34.4745 69.3267C32.0455 66.1493 30.1265 63.6394 32.6578 56.4847C32.7321 56.2741 32.8698 56.0917 33.052 55.9625C33.2342 55.8334 33.4519 55.7638 33.6752 55.7634L48.8363 55.7436C49.0598 55.7433 49.2779 55.8122 49.4607 55.9409C49.6434 56.0696 49.7818 56.2517 49.8567 56.4623C50.5941 58.3367 51.0115 60.3216 51.0914 62.3342C51.0953 65.385 49.7312 67.2139 48.1523 69.3316C46.7144 71.1426 45.5137 73.13 44.5795 75.2454C44.3459 75.9198 43.9162 76.5089 43.3454 76.9373C42.7746 77.3657 42.0889 77.6137 41.3761 77.6496L41.3697 77.6496ZM34.451 57.9245C32.6624 63.3961 33.9425 65.0712 36.1939 68.0142C37.7719 69.9605 39.0915 72.1027 40.12 74.3874C40.4204 75.0768 40.8879 75.4881 41.369 75.4874C41.8447 75.4868 42.3025 75.0765 42.5957 74.394C43.5977 72.1225 44.8833 69.987 46.422 68.0387C47.9329 66.0097 48.9355 64.6689 48.9324 62.337C48.8758 60.8242 48.5846 59.3293 48.0694 57.9057L34.451 57.9245Z" fill="white"/>
<path d="M41.3185 67.4237C40.8501 67.4058 40.3974 67.2498 40.0174 66.9755C39.6374 66.7011 39.3469 66.3206 39.1824 65.8816C38.7105 64.8356 38.1049 63.8552 37.3808 62.9651C36.1592 61.3612 35.1066 59.9767 36.1734 56.5169C36.2422 56.2972 36.3794 56.1051 36.5649 55.9688C36.7504 55.8324 36.9746 55.7588 37.2049 55.7588L45.313 55.7482C45.5431 55.7479 45.7672 55.821 45.9529 55.9569C46.1385 56.0927 46.276 56.2843 46.3453 56.5037C46.627 57.3317 46.7826 58.1974 46.807 59.0717C46.7551 60.5201 46.1854 61.9017 45.2013 62.9657C44.4948 63.8572 43.9043 64.8348 43.444 65.875C43.2825 66.3136 42.995 66.6946 42.6176 66.9701C42.2401 67.2457 41.7897 67.4035 41.3228 67.4237L41.3185 67.4237ZM38.0282 57.9199C37.6176 59.7172 38.1223 60.3792 39.0958 61.6569C39.9253 62.6833 40.619 63.8125 41.1596 65.0164C41.1936 65.1126 41.2532 65.1977 41.3319 65.2626C41.3156 65.2453 41.3869 65.1782 41.4526 65.0235C41.9796 63.8245 42.6571 62.6974 43.4688 61.6696C44.1607 60.9741 44.5784 60.0522 44.6449 59.0734C44.6377 58.6801 44.586 58.2889 44.4909 57.9072L38.0282 57.9199Z" fill="white"/>
<path d="M41.2579 47.4291C40.9712 47.4294 40.6961 47.3159 40.4931 47.1134C40.2901 46.9109 40.1758 46.6361 40.1754 46.3494L40.1672 40.0121C40.1668 39.7254 40.2803 39.4502 40.4828 39.2472C40.6853 39.0442 40.9601 38.93 41.2469 38.9296C41.5336 38.9292 41.8087 39.0428 42.0117 39.2452C42.2147 39.4477 42.329 39.7225 42.3293 40.0093L42.3376 46.3466C42.338 46.6333 42.2244 46.9084 42.0219 47.1114C41.8195 47.3144 41.5446 47.4287 41.2579 47.4291Z" fill="white"/>
<path d="M36.1766 47.4089C35.8898 47.4093 35.6147 47.2957 35.4117 47.0933C35.2087 46.8908 35.0945 46.6159 35.0941 46.3292L35.0905 43.5422C35.0901 43.2555 35.2036 42.9804 35.4061 42.7773C35.6086 42.5743 35.8834 42.4601 36.1701 42.4597C36.4568 42.4593 36.732 42.5729 36.935 42.7754C37.138 42.9778 37.2522 43.2527 37.2526 43.5394L37.2562 46.3264C37.2566 46.6131 37.1431 46.8883 36.9406 47.0913C36.7381 47.2943 36.4633 47.4085 36.1766 47.4089Z" fill="white"/>
<path d="M46.3259 47.3957C46.0391 47.3961 45.764 47.2825 45.561 47.0801C45.358 46.8776 45.2437 46.6027 45.2434 46.316L45.2397 43.529C45.2394 43.2423 45.3529 42.9672 45.5554 42.7641C45.7579 42.5611 46.0327 42.4469 46.3194 42.4465C46.6061 42.4461 46.8813 42.5597 47.0843 42.7622C47.2873 42.9646 47.4015 43.2395 47.4019 43.5262L47.4055 46.3132C47.4059 46.5999 47.2924 46.8751 47.0899 47.0781C46.8874 47.2811 46.6126 47.3953 46.3259 47.3957Z" fill="white"/>
</svg>
